<svg xmlns="http://www.w3.org/2000/svg">
<symbol id="android" viewBox="0 0 24 24">
<ns0:title xmlns:ns0="http://www.w3.org/2000/svg">Android</ns0:title>
<ns0:path xmlns:ns0="http://www.w3.org/2000/svg" d="M18.4395 5.5586c-.675 1.1664-1.352 2.3318-2.0274 3.498-.0366-.0155-.0742-.0286-.1113-.043-1.8249-.6957-3.484-.8-4.42-.787-1.8551.0185-3.3544.4643-4.2597.8203-.084-.1494-1.7526-3.021-2.0215-3.4864a1.1451 1.1451 0 0 0-.1406-.1914c-.3312-.364-.9054-.4859-1.379-.203-.475.282-.7136.9361-.3886 1.5019 1.9466 3.3696-.0966-.2158 1.9473 3.3593.0172.031-.4946.2642-1.3926 1.0177C2.8987 12.176.452 14.772 0 18.9902h24c-.119-1.1108-.3686-2.099-.7461-3.0683-.7438-1.9118-1.8435-3.2928-2.7402-4.1836a12.1048 12.1048 0 0 0-2.1309-1.6875c.6594-1.122 1.312-2.2559 1.9649-3.3848.2077-.3615.1886-.7956-.0079-1.1191a1.1001 1.1001 0 0 0-.8515-.5332c-.5225-.0536-.9392.3128-1.0488.5449zm-.0391 8.461c.3944.5926.324 1.3306-.1563 1.6503-.4799.3197-1.188.0985-1.582-.4941-.3944-.5927-.324-1.3307.1563-1.6504.4727-.315 1.1812-.1086 1.582.4941zM7.207 13.5273c.4803.3197.5506 1.0577.1563 1.6504-.394.5926-1.1038.8138-1.584.4941-.48-.3197-.5503-1.0577-.1563-1.6504.4008-.6021 1.1087-.8106 1.584-.4941z" />
</symbol>
<symbol id="css" viewBox="0 0 24 24">
<ns0:title xmlns:ns0="http://www.w3.org/2000/svg">CSS</ns0:title>
<ns0:path xmlns:ns0="http://www.w3.org/2000/svg" d="M0 0v20.16A3.84 3.84 0 0 0 3.84 24h16.32A3.84 3.84 0 0 0 24 20.16V3.84A3.84 3.84 0 0 0 20.16 0Zm14.256 13.08c1.56 0 2.28 1.08 2.304 2.64h-1.608c.024-.288-.048-.6-.144-.84-.096-.192-.288-.264-.552-.264-.456 0-.696.264-.696.84-.024.576.288.888.768 1.08.72.288 1.608.744 1.92 1.296q.432.648.432 1.656c0 1.608-.912 2.592-2.496 2.592-1.656 0-2.4-1.032-2.424-2.688h1.68c0 .792.264 1.176.792 1.176.264 0 .456-.072.552-.24.192-.312.24-1.176-.048-1.512-.312-.408-.912-.6-1.32-.816q-.828-.396-1.224-.936c-.24-.36-.36-.888-.36-1.536 0-1.44.936-2.472 2.424-2.448m5.4 0c1.584 0 2.304 1.08 2.328 2.64h-1.608c0-.288-.048-.6-.168-.84-.096-.192-.264-.264-.528-.264-.48 0-.72.264-.72.84s.288.888.792 1.08c.696.288 1.608.744 1.92 1.296.264.432.408.984.408 1.656.024 1.608-.888 2.592-2.472 2.592-1.68 0-2.424-1.056-2.448-2.688h1.68c0 .744.264 1.176.792 1.176.264 0 .456-.072.552-.24.216-.312.264-1.176-.048-1.512-.288-.408-.888-.6-1.32-.816-.552-.264-.96-.576-1.2-.936s-.36-.888-.36-1.536c-.024-1.44.912-2.472 2.4-2.448m-11.031.018c.711-.006 1.419.198 1.839.63.432.432.672 1.128.648 1.992H9.336c.024-.456-.096-.792-.432-.96-.312-.144-.768-.048-.888.24-.12.264-.192.576-.168.864v3.504c0 .744.264 1.128.768 1.128a.65.65 0 0 0 .552-.264c.168-.24.192-.552.168-.84h1.776c.096 1.632-.984 2.712-2.568 2.688-1.536 0-2.496-.864-2.472-2.472v-4.032c0-.816.24-1.44.696-1.848.432-.408 1.146-.624 1.857-.63" />
</symbol>
<symbol id="facebook" viewBox="0 0 24 24">
<ns0:title xmlns:ns0="http://www.w3.org/2000/svg">Facebook</ns0:title>
<ns0:path xmlns:ns0="http://www.w3.org/2000/svg" d="M9.101 23.691v-7.98H6.627v-3.667h2.474v-1.58c0-4.085 1.848-5.978 5.858-5.978.401 0 .955.042 1.468.103a8.68 8.68 0 0 1 1.141.195v3.325a8.623 8.623 0 0 0-.653-.036 26.805 26.805 0 0 0-.733-.009c-.707 0-1.259.096-1.675.309a1.686 1.686 0 0 0-.679.622c-.258.42-.374.995-.374 1.752v1.297h3.919l-.386 2.103-.287 1.564h-3.246v8.245C19.396 23.238 24 18.179 24 12.044c0-6.627-5.373-12-12-12s-12 5.373-12 12c0 5.628 3.874 10.35 9.101 11.647Z" />
</symbol>
<symbol id="git" viewBox="0 0 24 24">
<ns0:title xmlns:ns0="http://www.w3.org/2000/svg">Git</ns0:title>
<ns0:path xmlns:ns0="http://www.w3.org/2000/svg" d="M13.09 23.549a1.54 1.54 0 0 1-2.18 0L.451 13.089a1.54 1.54 0 0 1 0-2.179l7.191-7.19 2.733 2.733a1.85 1.85 0 0 0 .964 2.326v6.66a1.849 1.849 0 1 0 1.54 0V8.957l2.508 2.508a1.85 1.85 0 1 0 1.09-1.09l-2.634-2.634a1.85 1.85 0 0 0-2.378-2.377L8.73 2.63 10.91.451a1.54 1.54 0 0 1 2.179 0l10.459 10.46a1.54 1.54 0 0 1 0 2.179z" />
</symbol>
<symbol id="github" viewBox="0 0 24 24">
<ns0:title xmlns:ns0="http://www.w3.org/2000/svg">GitHub</ns0:title>
<ns0:path xmlns:ns0="http://www.w3.org/2000/svg" d="M12 .297c-6.63 0-12 5.373-12 12 0 5.303 3.438 9.8 8.205 11.385.6.113.82-.258.82-.577 0-.285-.01-1.04-.015-2.04-3.338.724-4.042-1.61-4.042-1.61C4.422 18.07 3.633 17.7 3.633 17.7c-1.087-.744.084-.729.084-.729 1.205.084 1.838 1.236 1.838 1.236 1.07 1.835 2.809 1.305 3.495.998.108-.776.417-1.305.76-1.605-2.665-.3-5.466-1.332-5.466-5.93 0-1.31.465-2.38 1.235-3.22-.135-.303-.54-1.523.105-3.176 0 0 1.005-.322 3.3 1.23.96-.267 1.98-.399 3-.405 1.02.006 2.04.138 3 .405 2.28-1.552 3.285-1.23 3.285-1.23.645 1.653.24 2.873.12 3.176.765.84 1.23 1.91 1.23 3.22 0 4.61-2.805 5.625-5.475 5.92.42.36.81 1.096.81 2.22 0 1.606-.015 2.896-.015 3.286 0 .315.21.69.825.57C20.565 22.092 24 17.592 24 12.297c0-6.627-5.373-12-12-12" />
</symbol>
<symbol id="html5" viewBox="0 0 24 24">
<ns0:title xmlns:ns0="http://www.w3.org/2000/svg">HTML5</ns0:title>
<ns0:path xmlns:ns0="http://www.w3.org/2000/svg" d="M1.5 0h21l-1.91 21.563L11.977 24l-8.564-2.438L1.5 0zm7.031 9.75l-.232-2.718 10.059.003.23-2.622L5.412 4.41l.698 8.01h9.126l-.326 3.426-2.91.804-2.955-.81-.188-2.11H6.248l.33 4.171L12 19.351l5.379-1.443.744-8.157H8.531z" />
</symbol>
<symbol id="instagram" viewBox="0 0 24 24">
<ns0:title xmlns:ns0="http://www.w3.org/2000/svg">Instagram</ns0:title>
<ns0:path xmlns:ns0="http://www.w3.org/2000/svg" d="M7.0301.084c-1.2768.0602-2.1487.264-2.911.5634-.7888.3075-1.4575.72-2.1228 1.3877-.6652.6677-1.075 1.3368-1.3802 2.127-.2954.7638-.4956 1.6365-.552 2.914-.0564 1.2775-.0689 1.6882-.0626 4.947.0062 3.2586.0206 3.6671.0825 4.9473.061 1.2765.264 2.1482.5635 2.9107.308.7889.72 1.4573 1.388 2.1228.6679.6655 1.3365 1.0743 2.1285 1.38.7632.295 1.6361.4961 2.9134.552 1.2773.056 1.6884.069 4.9462.0627 3.2578-.0062 3.668-.0207 4.9478-.0814 1.28-.0607 2.147-.2652 2.9098-.5633.7889-.3086 1.4578-.72 2.1228-1.3881.665-.6682 1.0745-1.3378 1.3795-2.1284.2957-.7632.4966-1.636.552-2.9124.056-1.2809.0692-1.6898.063-4.948-.0063-3.2583-.021-3.6668-.0817-4.9465-.0607-1.2797-.264-2.1487-.5633-2.9117-.3084-.7889-.72-1.4568-1.3876-2.1228C21.2982 1.33 20.628.9208 19.8378.6165 19.074.321 18.2017.1197 16.9244.0645 15.6471.0093 15.236-.005 11.977.0014 8.718.0076 8.31.0215 7.0301.0839m.1402 21.6932c-1.17-.0509-1.8053-.2453-2.2287-.408-.5606-.216-.96-.4771-1.3819-.895-.422-.4178-.6811-.8186-.9-1.378-.1644-.4234-.3624-1.058-.4171-2.228-.0595-1.2645-.072-1.6442-.079-4.848-.007-3.2037.0053-3.583.0607-4.848.05-1.169.2456-1.805.408-2.2282.216-.5613.4762-.96.895-1.3816.4188-.4217.8184-.6814 1.3783-.9003.423-.1651 1.0575-.3614 2.227-.4171 1.2655-.06 1.6447-.072 4.848-.079 3.2033-.007 3.5835.005 4.8495.0608 1.169.0508 1.8053.2445 2.228.408.5608.216.96.4754 1.3816.895.4217.4194.6816.8176.9005 1.3787.1653.4217.3617 1.056.4169 2.2263.0602 1.2655.0739 1.645.0796 4.848.0058 3.203-.0055 3.5834-.061 4.848-.051 1.17-.245 1.8055-.408 2.2294-.216.5604-.4763.96-.8954 1.3814-.419.4215-.8181.6811-1.3783.9-.4224.1649-1.0577.3617-2.2262.4174-1.2656.0595-1.6448.072-4.8493.079-3.2045.007-3.5825-.006-4.848-.0608M16.953 5.5864A1.44 1.44 0 1 0 18.39 4.144a1.44 1.44 0 0 0-1.437 1.4424M5.8385 12.012c.0067 3.4032 2.7706 6.1557 6.173 6.1493 3.4026-.0065 6.157-2.7701 6.1506-6.1733-.0065-3.4032-2.771-6.1565-6.174-6.1498-3.403.0067-6.156 2.771-6.1496 6.1738M8 12.0077a4 4 0 1 1 4.008 3.9921A3.9996 3.9996 0 0 1 8 12.0077" />
</symbol>
<symbol id="javascript" viewBox="0 0 24 24">
<ns0:title xmlns:ns0="http://www.w3.org/2000/svg">JavaScript</ns0:title>
<ns0:path xmlns:ns0="http://www.w3.org/2000/svg" d="M0 0h24v24H0V0zm22.034 18.276c-.175-1.095-.888-2.015-3.003-2.873-.736-.345-1.554-.585-1.797-1.14-.091-.33-.105-.51-.046-.705.15-.646.915-.84 1.515-.66.39.12.75.42.976.9 1.034-.676 1.034-.676 1.755-1.125-.27-.42-.404-.601-.586-.78-.63-.705-1.469-1.065-2.834-1.034l-.705.089c-.676.165-1.32.525-1.71 1.005-1.14 1.291-.811 3.541.569 4.471 1.365 1.02 3.361 1.244 3.616 2.205.24 1.17-.87 1.545-1.966 1.41-.811-.18-1.26-.586-1.755-1.336l-1.83 1.051c.21.48.45.689.81 1.109 1.74 1.756 6.09 1.666 6.871-1.004.029-.09.24-.705.074-1.65l.046.067zm-8.983-7.245h-2.248c0 1.938-.009 3.864-.009 5.805 0 1.232.063 2.363-.138 2.711-.33.689-1.18.601-1.566.48-.396-.196-.597-.466-.83-.855-.063-.105-.11-.196-.127-.196l-1.825 1.125c.305.63.75 1.172 1.324 1.517.855.51 2.004.675 3.207.405.783-.226 1.458-.691 1.811-1.411.51-.93.402-2.07.397-3.346.012-2.054 0-4.109 0-6.179l.004-.056z" />
</symbol>
<symbol id="kotlin" viewBox="0 0 24 24">
<ns0:title xmlns:ns0="http://www.w3.org/2000/svg">Kotlin</ns0:title>
<ns0:path xmlns:ns0="http://www.w3.org/2000/svg" d="M24 24H0V0h24L12 12Z" />
</symbol>
<symbol id="node" viewBox="0 0 24 24">
<ns0:title xmlns:ns0="http://www.w3.org/2000/svg">Node.js</ns0:title>
<ns0:path xmlns:ns0="http://www.w3.org/2000/svg" d="M11.998,24c-0.321,0-0.641-0.084-0.922-0.247l-2.936-1.737c-0.438-0.245-0.224-0.332-0.08-0.383 c0.585-0.203,0.703-0.25,1.328-0.604c0.065-0.037,0.151-0.023,0.218,0.017l2.256,1.339c0.082,0.045,0.197,0.045,0.272,0l8.795-5.076 c0.082-0.047,0.134-0.141,0.134-0.238V6.921c0-0.099-0.053-0.192-0.137-0.242l-8.791-5.072c-0.081-0.047-0.189-0.047-0.271,0 L3.075,6.68C2.99,6.729,2.936,6.825,2.936,6.921v10.15c0,0.097,0.054,0.189,0.139,0.235l2.409,1.392 c1.307,0.654,2.108-0.116,2.108-0.89V7.787c0-0.142,0.114-0.253,0.256-0.253h1.115c0.139,0,0.255,0.112,0.255,0.253v10.021 c0,1.745-0.95,2.745-2.604,2.745c-0.508,0-0.909,0-2.026-0.551L2.28,18.675c-0.57-0.329-0.922-0.945-0.922-1.604V6.921 c0-0.659,0.353-1.275,0.922-1.603l8.795-5.082c0.557-0.315,1.296-0.315,1.848,0l8.794,5.082c0.57,0.329,0.924,0.944,0.924,1.603 v10.15c0,0.659-0.354,1.273-0.924,1.604l-8.794,5.078C12.643,23.916,12.324,24,11.998,24z M19.099,13.993 c0-1.9-1.284-2.406-3.987-2.763c-2.731-0.361-3.009-0.548-3.009-1.187c0-0.528,0.235-1.233,2.258-1.233 c1.807,0,2.473,0.389,2.747,1.607c0.024,0.115,0.129,0.199,0.247,0.199h1.141c0.071,0,0.138-0.031,0.186-0.081 c0.048-0.054,0.074-0.123,0.067-0.196c-0.177-2.098-1.571-3.076-4.388-3.076c-2.508,0-4.004,1.058-4.004,2.833 c0,1.925,1.488,2.457,3.895,2.695c2.88,0.282,3.103,0.703,3.103,1.269c0,0.983-0.789,1.402-2.642,1.402 c-2.327,0-2.839-0.584-3.011-1.742c-0.02-0.124-0.126-0.215-0.253-0.215h-1.137c-0.141,0-0.254,0.112-0.254,0.253 c0,1.482,0.806,3.248,4.655,3.248C17.501,17.007,19.099,15.91,19.099,13.993z" />
</symbol>
<symbol id="pinescript" viewBox="0 0 24 24">
<ns0:title xmlns:ns0="http://www.w3.org/2000/svg">Pine Script</ns0:title>
<ns0:path xmlns:ns0="http://www.w3.org/2000/svg" d="M3.785 16.14.124 21.287c-.311.437 0 1.044.536 1.044h22.681c.535 0 .846-.608.536-1.045l-4.2-5.927-1.979 1.161c-.037 1.063-.907 1.913-1.976 1.913-1.092 0-1.977-.887-1.977-1.982 0-.055.003-.11.007-.165l-3.173-2.328c-.341.278-.775.445-1.249.445-.56 0-1.065-.234-1.425-.609l-4.12 2.346Zm7.693-14.194L3.813 12.732c-.222.314-.132.751.197.95l.691.417 2.66-1.515a1.747 1.747 0 0 1-.007-.163c0-1.095.885-1.982 1.977-1.982 1.091 0 1.976.887 1.976 1.982 0 .138-.014.273-.041.403l3.047 2.237c.359-.366.858-.592 1.409-.592.634 0 1.198.299 1.56.764l2.831-1.66c.219-.222.258-.581.068-.849L12.553 1.948c-.262-.371-.812-.373-1.075-.002Z" />
</symbol>
<symbol id="react" viewBox="0 0 24 24">
<ns0:title xmlns:ns0="http://www.w3.org/2000/svg">React</ns0:title>
<ns0:path xmlns:ns0="http://www.w3.org/2000/svg" d="M14.23 12.004a2.236 2.236 0 0 1-2.235 2.236 2.236 2.236 0 0 1-2.236-2.236 2.236 2.236 0 0 1 2.235-2.236 2.236 2.236 0 0 1 2.236 2.236zm2.648-10.69c-1.346 0-3.107.96-4.888 2.622-1.78-1.653-3.542-2.602-4.887-2.602-.41 0-.783.093-1.106.278-1.375.793-1.683 3.264-.973 6.365C1.98 8.917 0 10.42 0 12.004c0 1.59 1.99 3.097 5.043 4.03-.704 3.113-.39 5.588.988 6.38.32.187.69.275 1.102.275 1.345 0 3.107-.96 4.888-2.624 1.78 1.654 3.542 2.603 4.887 2.603.41 0 .783-.09 1.106-.275 1.374-.792 1.683-3.263.973-6.365C22.02 15.096 24 13.59 24 12.004c0-1.59-1.99-3.097-5.043-4.032.704-3.11.39-5.587-.988-6.38-.318-.184-.688-.277-1.092-.278zm-.005 1.09v.006c.225 0 .406.044.558.127.666.382.955 1.835.73 3.704-.054.46-.142.945-.25 1.44-.96-.236-2.006-.417-3.107-.534-.66-.905-1.345-1.727-2.035-2.447 1.592-1.48 3.087-2.292 4.105-2.295zm-9.77.02c1.012 0 2.514.808 4.11 2.28-.686.72-1.37 1.537-2.02 2.442-1.107.117-2.154.298-3.113.538-.112-.49-.195-.964-.254-1.42-.23-1.868.054-3.32.714-3.707.19-.09.4-.127.563-.132zm4.882 3.05c.455.468.91.992 1.36 1.564-.44-.02-.89-.034-1.345-.034-.46 0-.915.01-1.36.034.44-.572.895-1.096 1.345-1.565zM12 8.1c.74 0 1.477.034 2.202.093.406.582.802 1.203 1.183 1.86.372.64.71 1.29 1.018 1.946-.308.655-.646 1.31-1.013 1.95-.38.66-.773 1.288-1.18 1.87-.728.063-1.466.098-2.21.098-.74 0-1.477-.035-2.202-.093-.406-.582-.802-1.204-1.183-1.86-.372-.64-.71-1.29-1.018-1.946.303-.657.646-1.313 1.013-1.954.38-.66.773-1.286 1.18-1.868.728-.064 1.466-.098 2.21-.098zm-3.635.254c-.24.377-.48.763-.704 1.16-.225.39-.435.782-.635 1.174-.265-.656-.49-1.31-.676-1.947.64-.15 1.315-.283 2.015-.386zm7.26 0c.695.103 1.365.23 2.006.387-.18.632-.405 1.282-.66 1.933-.2-.39-.41-.783-.64-1.174-.225-.392-.465-.774-.705-1.146zm3.063.675c.484.15.944.317 1.375.498 1.732.74 2.852 1.708 2.852 2.476-.005.768-1.125 1.74-2.857 2.475-.42.18-.88.342-1.355.493-.28-.958-.646-1.956-1.1-2.98.45-1.017.81-2.01 1.085-2.964zm-13.395.004c.278.96.645 1.957 1.1 2.98-.45 1.017-.812 2.01-1.086 2.964-.484-.15-.944-.318-1.37-.5-1.732-.737-2.852-1.706-2.852-2.474 0-.768 1.12-1.742 2.852-2.476.42-.18.88-.342 1.356-.494zm11.678 4.28c.265.657.49 1.312.676 1.948-.64.157-1.316.29-2.016.39.24-.375.48-.762.705-1.158.225-.39.435-.788.636-1.18zm-9.945.02c.2.392.41.783.64 1.175.23.39.465.772.705 1.143-.695-.102-1.365-.23-2.006-.386.18-.63.406-1.282.66-1.933zM17.92 16.32c.112.493.2.968.254 1.423.23 1.868-.054 3.32-.714 3.708-.147.09-.338.128-.563.128-1.012 0-2.514-.807-4.11-2.28.686-.72 1.37-1.536 2.02-2.44 1.107-.118 2.154-.3 3.113-.54zm-11.83.01c.96.234 2.006.415 3.107.532.66.905 1.345 1.727 2.035 2.446-1.595 1.483-3.092 2.295-4.11 2.295-.22-.005-.406-.05-.553-.132-.666-.38-.955-1.834-.73-3.703.054-.46.142-.944.25-1.438zm4.56.64c.44.02.89.034 1.345.034.46 0 .915-.01 1.36-.034-.44.572-.895 1.095-1.345 1.565-.455-.47-.91-.993-1.36-1.565z" />
</symbol>
<symbol id="tradingview" viewBox="0 0 24 24">
<ns0:title xmlns:ns0="http://www.w3.org/2000/svg">TradingView</ns0:title>
<ns0:path xmlns:ns0="http://www.w3.org/2000/svg" d="M15.8654 8.2789c0 1.3541-1.0978 2.4519-2.452 2.4519-1.354 0-2.4519-1.0978-2.4519-2.452 0-1.354 1.0978-2.4518 2.452-2.4518 1.3541 0 2.4519 1.0977 2.4519 2.4519zM9.75 6H0v4.9038h4.8462v7.2692H9.75Zm8.5962 0H24l-5.1058 12.173h-5.6538z" />
</symbol>
<symbol id="typescript" viewBox="0 0 24 24">
<ns0:title xmlns:ns0="http://www.w3.org/2000/svg">TypeScript</ns0:title>
<ns0:path xmlns:ns0="http://www.w3.org/2000/svg" d="M1.125 0C.502 0 0 .502 0 1.125v21.75C0 23.498.502 24 1.125 24h21.75c.623 0 1.125-.502 1.125-1.125V1.125C24 .502 23.498 0 22.875 0zm17.363 9.75c.612 0 1.154.037 1.627.111a6.38 6.38 0 0 1 1.306.34v2.458a3.95 3.95 0 0 0-.643-.361 5.093 5.093 0 0 0-.717-.26 5.453 5.453 0 0 0-1.426-.2c-.3 0-.573.028-.819.086a2.1 2.1 0 0 0-.623.242c-.17.104-.3.229-.393.374a.888.888 0 0 0-.14.49c0 .196.053.373.156.529.104.156.252.304.443.444s.423.276.696.41c.273.135.582.274.926.416.47.197.892.407 1.266.628.374.222.695.473.963.753.268.279.472.598.614.957.142.359.214.776.214 1.253 0 .657-.125 1.21-.373 1.656a3.033 3.033 0 0 1-1.012 1.085 4.38 4.38 0 0 1-1.487.596c-.566.12-1.163.18-1.79.18a9.916 9.916 0 0 1-1.84-.164 5.544 5.544 0 0 1-1.512-.493v-2.63a5.033 5.033 0 0 0 3.237 1.2c.333 0 .624-.03.872-.09.249-.06.456-.144.623-.25.166-.108.29-.234.373-.38a1.023 1.023 0 0 0-.074-1.089 2.12 2.12 0 0 0-.537-.5 5.597 5.597 0 0 0-.807-.444 27.72 27.72 0 0 0-1.007-.436c-.918-.383-1.602-.852-2.053-1.405-.45-.553-.676-1.222-.676-2.005 0-.614.123-1.141.369-1.582.246-.441.58-.804 1.004-1.089a4.494 4.494 0 0 1 1.47-.629 7.536 7.536 0 0 1 1.77-.201zm-15.113.188h9.563v2.166H9.506v9.646H6.789v-9.646H3.375z" />
</symbol>
<symbol id="webstorm" viewBox="0 0 24 24">
<ns0:title xmlns:ns0="http://www.w3.org/2000/svg">WebStorm</ns0:title>
<ns0:path xmlns:ns0="http://www.w3.org/2000/svg" d="M0 0v24h24V0H0zm17.889 2.889c1.444 0 2.667.444 3.667 1.278l-1.111 1.667c-.889-.611-1.722-1-2.556-1s-1.278.389-1.278.889v.056c0 .667.444.889 2.111 1.333 2 .556 3.111 1.278 3.111 3v.056c0 2-1.5 3.111-3.611 3.111-1.5-.056-3-.611-4.167-1.667l1.278-1.556c.889.722 1.833 1.222 2.944 1.222.889 0 1.389-.333 1.389-.944v-.056c0-.556-.333-.833-2-1.278-2-.5-3.222-1.056-3.222-3.056v-.056c0-1.833 1.444-3 3.444-3zm-16.111.222h2.278l1.5 5.778 1.722-5.778h1.667l1.667 5.778 1.5-5.778h2.333l-2.833 9.944H9.723L8.112 7.277l-1.667 5.778H4.612L1.779 3.111zm.5 16.389h9V21h-9v-1.5z" />
</symbol>
</svg>